<?xml version="1.0" standalone="no"?><!DOCTYPE svg PUBLIC "-//W3C//DTD SVG 1.1//EN" "http://www.w3.org/Graphics/SVG/1.1/DTD/svg11.dtd"><svg class="icon" width="200px" height="200.00px" viewBox="0 0 1024 1024" version="1.1" xmlns="http://www.w3.org/2000/svg"><path d="M862.72 258.2528c-90.5728-90.5728-237.4656-90.5728-328.0384 0a28.9536 28.9536 0 0 1-40.96 0c-90.5728-90.5728-237.4656-90.5728-328.0384 0-90.5728 90.5728-90.5728 237.4656 0 328.0384l20.48 20.48 285.3888 285.3888c23.552 23.552 61.7472 23.552 85.2992 0l285.3888-285.3888 20.48-20.48c90.5728-90.5728 90.5728-237.4656 0-328.0384z m-237.9264 296.7552h-78.8992v78.8992c0 17.5104-14.1824 31.6928-31.6928 31.6928s-31.6928-14.1824-31.6928-31.6928V555.008H403.6096c-17.5104 0-31.6928-14.1824-31.6928-31.6928s14.1824-31.6928 31.6928-31.6928h78.8992V412.7232c0-17.5104 14.1824-31.6928 31.6928-31.6928s31.6928 14.1824 31.6928 31.6928v78.8992h78.8992c17.5104 0 31.6928 14.1824 31.6928 31.6928s-14.2336 31.6928-31.6928 31.6928z" fill="#EECAFC" /><path d="M862.72 196.8128c-90.5728-90.5728-237.4656-90.5728-328.0384 0a28.9536 28.9536 0 0 1-40.96 0c-90.5728-90.5728-237.4656-90.5728-328.0384 0-90.5728 90.5728-90.5728 237.4656 0 328.0384l20.48 20.48 285.3888 285.3888c23.552 23.552 61.7472 23.552 85.2992 0l285.3888-285.3888 20.48-20.48c90.5728-90.5728 90.5728-237.4656 0-328.0384zM624.7936 493.568h-78.8992v78.8992c0 17.5104-14.1824 31.6928-31.6928 31.6928s-31.6928-14.1824-31.6928-31.6928V493.568H403.6096c-17.5104 0-31.6928-14.1824-31.6928-31.6928s14.1824-31.6928 31.6928-31.6928h78.8992V351.2832c0-17.5104 14.1824-31.6928 31.6928-31.6928s31.6928 14.1824 31.6928 31.6928v78.8992h78.8992c17.5104 0 31.6928 14.1824 31.6928 31.6928s-14.2336 31.6928-31.6928 31.6928z" fill="#D37CEF" /></svg>