<?xml version="1.0" standalone="no"?><!DOCTYPE svg PUBLIC "-//W3C//DTD SVG 1.1//EN" "http://www.w3.org/Graphics/SVG/1.1/DTD/svg11.dtd"><svg class="icon" width="200px" height="200.00px" viewBox="0 0 1024 1024" version="1.1" xmlns="http://www.w3.org/2000/svg"><path d="M185.6 385.2288c44.4928-74.9568 114.0224-133.3248 197.12-163.4304C365.056 165.7856 312.7296 125.184 250.88 125.184c-76.3392 0-138.1888 61.8496-138.1888 138.1888 0 52.736 29.4912 98.5088 72.9088 121.856zM854.528 390.3488c-44.4928-74.9568-114.0224-133.2736-197.0688-163.4304 17.664-56.0128 69.9904-96.6144 131.84-96.6144 76.3392 0 138.1888 61.8496 138.1888 138.1888-0.0512 52.736-29.5424 98.5088-72.96 121.856zM522.0352 264.6016c-187.392 0-339.3536 151.9104-339.3536 339.3536s151.9104 339.3536 339.3536 339.3536 339.3536-151.9104 339.3536-339.3536-151.9616-339.3536-339.3536-339.3536z m142.08 421.3248H510.6176c-26.7264 0-48.384-21.6576-48.384-48.384V475.0848c0-15.104 11.008-28.5696 26.0608-30.0032 17.2544-1.6384 31.744 11.8784 31.744 28.7744v141.056a13.2608 13.2608 0 0 0 13.2608 13.2608h129.6384c15.104 0 28.5696 11.008 30.0032 26.0608a28.96384 28.96384 0 0 1-28.8256 31.6928z" fill="#95F9F4" /><path d="M175.36 354.5088c44.4928-74.9568 114.0224-133.3248 197.12-163.4304C354.816 135.0656 302.4896 94.464 240.64 94.464c-76.3392 0-138.1888 61.8496-138.1888 138.1888 0 52.736 29.4912 98.5088 72.9088 121.856zM854.528 354.5088c-44.4928-74.9568-114.0224-133.2736-197.0688-163.4304 17.664-56.0128 69.9904-96.6144 131.84-96.6144 76.3392 0 138.1888 61.8496 138.1888 138.1888-0.0512 52.736-29.5424 98.5088-72.96 121.856zM516.9152 218.5216c-187.392 0-339.3536 151.9104-339.3536 339.3536s151.9104 339.3536 339.3536 339.3536 339.3536-151.9104 339.3536-339.3536-151.9616-339.3536-339.3536-339.3536z m142.08 421.3248H505.4976c-26.7264 0-48.384-21.6576-48.384-48.384V429.0048c0-15.104 11.008-28.5696 26.0608-30.0032 17.2544-1.6384 31.744 11.8784 31.744 28.7744v141.056a13.2608 13.2608 0 0 0 13.2608 13.2608h129.6384c15.104 0 28.5696 11.008 30.0032 26.0608a28.96384 28.96384 0 0 1-28.8256 31.6928z" fill="#3CC4C2" /></svg>