<?xml version="1.0" standalone="no"?><!DOCTYPE svg PUBLIC "-//W3C//DTD SVG 1.1//EN" "http://www.w3.org/Graphics/SVG/1.1/DTD/svg11.dtd"><svg class="icon" width="200px" height="200.00px" viewBox="0 0 1024 1024" version="1.1" xmlns="http://www.w3.org/2000/svg"><path d="M510.5152 451.4816c-64.4608 0-116.8896 52.4288-116.8896 116.8896 0 64.4608 52.4288 116.8896 116.8896 116.8896 64.4608 0 116.8896-52.4288 116.8896-116.8896 0-64.4608-52.4288-116.8896-116.8896-116.8896z" fill="#FCDFAE" /><path d="M845.1584 277.9136h-106.4448c-17.408 0-32.512-11.9808-36.4544-28.8768l-7.424-31.6416a38.5536 38.5536 0 0 0-37.5296-29.7472H363.776a38.5536 38.5536 0 0 0-37.5296 29.7472l-7.424 31.6416a37.4528 37.4528 0 0 1-36.4544 28.8768H175.9232c-37.3248 0-67.5328 30.2592-67.5328 67.5328v452.8128c0 37.3248 30.2592 67.5328 67.5328 67.5328h669.2352c37.3248 0 67.5328-30.2592 67.5328-67.5328V345.4464c0-37.3248-30.208-67.5328-67.5328-67.5328z m-334.6432 465.3056c-96.4608 0-174.8992-78.4384-174.8992-174.8992 0-96.4608 78.4384-174.8992 174.8992-174.8992s174.8992 78.4384 174.8992 174.8992c0 96.4608-78.4384 174.8992-174.8992 174.8992z m287.1808-336.9472h-51.8656c-16.0256 0-29.0304-13.0048-29.0304-29.0304s13.0048-29.0304 29.0304-29.0304h51.8656c16.0256 0 29.0304 13.0048 29.0304 29.0304s-13.0048 29.0304-29.0304 29.0304z" fill="#FCDFAE" /><path d="M510.5152 406.6816c-64.4608 0-116.8896 52.4288-116.8896 116.8896 0 64.4608 52.4288 116.8896 116.8896 116.8896 64.4608 0 116.8896-52.4288 116.8896-116.8896 0-64.4608-52.4288-116.8896-116.8896-116.8896z" fill="#F8B62D" /><path d="M845.1584 233.1136h-106.4448c-17.408 0-32.512-11.9808-36.4544-28.8768l-7.424-31.6416a38.5536 38.5536 0 0 0-37.5296-29.7472H363.776a38.5536 38.5536 0 0 0-37.5296 29.7472l-7.424 31.6416a37.4528 37.4528 0 0 1-36.4544 28.8768H175.9232c-37.3248 0-67.5328 30.2592-67.5328 67.5328v452.8128c0 37.3248 30.2592 67.5328 67.5328 67.5328h669.2352c37.3248 0 67.5328-30.2592 67.5328-67.5328V300.6464c0-37.2736-30.208-67.5328-67.5328-67.5328z m-334.6432 465.3568c-96.4608 0-174.8992-78.4384-174.8992-174.8992 0-96.4608 78.4384-174.8992 174.8992-174.8992s174.8992 78.4384 174.8992 174.8992c0 96.4096-78.4384 174.8992-174.8992 174.8992zM797.696 361.472h-51.8656c-16.0256 0-29.0304-13.0048-29.0304-29.0304s13.0048-29.0304 29.0304-29.0304h51.8656c16.0256 0 29.0304 13.0048 29.0304 29.0304s-13.0048 29.0304-29.0304 29.0304z" fill="#F8B62D" /></svg>